<svg xmlns="http://www.w3.org/2000/svg" version="1.0" preserveAspectRatio="xMidYMid meet" viewBox="52.22 120.12 192.78 61.86">
<metadata>
Created by potrace 1.10, written by Peter Selinger 2001-2011
</metadata>
<g transform="translate(0.000000,298.000000) scale(0.100000,-0.100000)" fill="#000000" stroke="none">
<path d="M1443 1768 c-30 -14 -53 -67 -53 -121 0 -40 -2 -45 -20 -40 -16 4 -20 0 -20 -21 0 -19 5 -26 20 -26 19 0 20 -7 20 -140 l0 -140 28 0 29 0 -1 142 -1 143 37 -3 c28 -3 39 1 47 17 17 31 14 33 -36 30 l-48 -3 1 46 c0 26 6 53 13 62 16 19 52 21 69 4 14 -14 17 -11 26 19 6 19 2 25 -19 33 -33 12 -63 12 -92 -2z"/>
<path d="M1024 1711 c-6 -46 -8 -49 -45 -60 -58 -17 -120 -88 -130 -147 -2 -11 -1 -22 4 -22 31 -7 44 1 55 33 23 63 119 119 108 63 -16 -81 -16 -88 7 -102 25 -16 297 -29 297 -14 0 4 -19 8 -43 8 -42 0 -43 1 -55 44 -6 24 -23 58 -38 75 -43 52 -145 95 -130 55 3 -9 6 -21 6 -28 0 -7 16 -18 35 -25 35 -12 67 -48 80 -90 7 -23 7 -24 -49 -17 -39 5 -62 4 -72 -4 -12 -11 -14 -2 -16 56 -1 38 0 104 1 147 4 86 -5 103 -15 28z"/>
<path d="M2392 1728 c-16 -16 -15 -33 3 -48 21 -18 55 -3 55 25 0 32 -35 46 -58 23z"/>
<path d="M555 1586 c-59 -59 -38 -117 59 -165 69 -35 82 -51 66 -82 -15 -27 -88 -26 -124 2 l-26 20 0 -31 c0 -26 6 -33 35 -46 87 -36 175 9 175 90 0 34 -34 71 -82 91 -24 9 -51 24 -60 32 -22 20 -23 59 -2 67 29 11 77 6 96 -11 21 -19 23 -17 31 18 8 32 -9 39 -91 39 -43 0 -58 -5 -77 -24z"/>
<path d="M1687 1589 c-32 -17 -36 -22 -27 -39 13 -24 12 -24 52 0 64 39 118 15 118 -52 0 -26 -3 -28 -37 -28 -48 0 -115 -31 -137 -61 -24 -35 -20 -85 9 -114 32 -33 81 -33 129 0 l37 25 9 -25 c7 -19 17 -25 40 -25 35 0 34 -1 15 36 -11 21 -15 61 -15 142 0 107 -1 114 -25 137 -31 32 -111 34 -168 4z m143 -197 c0 -34 -5 -41 -32 -56 -18 -10 -46 -16 -63 -14 -24 2 -31 8 -33 31 -6 46 30 75 96 76 31 1 32 -1 32 -37z"/>
<path d="M2064 1594 c3 -9 6 -83 6 -165 l0 -149 29 0 29 0 -5 80 c-7 102 12 159 62 185 28 16 36 17 49 6 13 -11 17 -9 26 14 14 36 6 45 -37 45 -28 0 -43 -8 -70 -37 l-35 -38 4 38 c4 36 3 37 -30 37 -27 0 -33 -3 -28 -16z"/>
<path d="M2391 1445 l2 -165 28 0 29 0 0 165 0 165 -30 0 -31 0 2 -165z"/>
<path d="M796 1448 c50 -9 52 -11 58 -47 7 -49 64 -114 117 -135 23 -9 44 -15 46 -12 14 13 -10 53 -42 70 -36 20 -75 71 -75 99 0 9 6 15 13 13 6 -3 30 -7 52 -10 33 -4 43 -2 52 14 12 18 8 19 -130 18 -117 -1 -133 -3 -91 -10z"/>
<path d="M1040 1370 c0 -47 -2 -116 -5 -155 -4 -48 -2 -64 4 -50 5 11 10 34 10 52 1 28 5 33 37 42 52 14 99 54 123 104 28 58 27 77 -3 77 -19 0 -27 -8 -36 -35 -13 -38 -71 -95 -99 -95 -16 0 -17 5 -9 57 7 46 6 59 -7 72 -13 14 -15 7 -15 -69z"/>
</g>
</svg>